<?xml version="1.0" encoding="utf-8"?>
<!-- Generator: Adobe Illustrator 21.0.0, SVG Export Plug-In . SVG Version: 6.00 Build 0)  -->
<svg version="1.1" id="Layer_1" xmlns="http://www.w3.org/2000/svg" xmlns:xlink="http://www.w3.org/1999/xlink" x="0px" y="0px"
	 viewBox="0 0 100 100" style="enable-background:new 0 0 100 100;" xml:space="preserve">
<style type="text/css">
	.st0{fill:#29B06D;}
	.st1{fill:#6F6F70;}
</style>
<g id="team">
	<path class="st0" d="M73.2,82.7c-0.7-8.6-7.1-15.6-15.5-17.1c0,0,0,0,0,0c-0.1,0-0.2,0-0.3,0l-8.7,4.6v-1.2c-3.3,0-6.4-1.3-8.7-3.3
		l0,0l0,0c-0.1,0-0.2,0-0.3,0c-1.1,0.2-2.1,0.5-3.1,0.8c-5.4,1.9-9.7,6.3-11.5,11.8c-0.5,1.5-0.8,3.1-0.9,4.7
		c6.5,5.6,15.1,9.1,24.4,9.1c0,0,0.1,0,0.1,0l0,0l0,0C58.1,91.9,66.7,88.4,73.2,82.7z"/>
	<g>
		<circle class="st1" cx="11.7" cy="27.9" r="1.3"/>
		<circle class="st1" cx="73.5" cy="89.3" r="1.3"/>
		<circle class="st1" cx="36.1" cy="30.9" r="1.3"/>
		<path class="st1" d="M47.4,50.6c0-0.6-0.5-1.2-1.2-1.2h-2.9c-0.6,0-1.2,0.5-1.2,1.2c0,0.6,0.5,1.2,1.2,1.2h2.9
			C46.9,51.8,47.4,51.2,47.4,50.6z"/>
		<path class="st1" d="M55.2,49.4h-2.9c-0.6,0-1.2,0.5-1.2,1.2c0,0.6,0.5,1.2,1.2,1.2h2.9c0.6,0,1.2-0.5,1.2-1.2
			C56.4,50,55.9,49.4,55.2,49.4z"/>
		<path class="st1" d="M51.4,58.3c-1.7,1.3-3.4,1.3-5.1,0c-0.5-0.4-1.2-0.3-1.6,0.2c-0.4,0.5-0.3,1.2,0.2,1.6
			c1.2,0.9,2.6,1.4,3.9,1.4c1.3,0,2.7-0.5,3.9-1.4c0.5-0.4,0.6-1.1,0.2-1.6C52.6,58,51.9,57.9,51.4,58.3z"/>
		<path class="st1" d="M62.8,38.1c0,0,0-0.1,0-0.1c-1-2.6-2.5-5-4.5-6.9c-3.3-3.3-7.1-4.6-9.7-5.2c-0.4-0.1-0.8,0-1,0.3
			c-0.3,0.3-0.4,0.6-0.4,1c0.1,0.4,0.1,0.9,0,1.3c-0.1,0-0.1-0.1-0.2-0.1c-1.1-0.6-2.2-0.7-2.8-0.7c-0.1,0-0.2,0-0.2,0
			c-0.5,0-0.9,0.3-1.1,0.8c-0.2,0.5,0,1,0.4,1.3c0,0,0.4,0.3,0.4,0.8c0,0,0,0,0,0c-0.2,0-0.5,0.1-0.7,0.2c-2.7,0.7-4.3,2.5-5.1,3.4
			c-1.7,1.9-2.3,3.9-2.5,4.5l0,0.1c-0.6,1.7-0.7,3.5-0.4,5.3c-0.2,0.1-0.5,0.2-0.7,0.3c-0.8,0.6-1.6,1.8-0.9,4.8
			c0.5,1.9,1.4,2.6,1.9,3c0.1,0.1,0.2,0.1,0.2,0.2c1.3,8.3,6.9,14.3,13.4,14.3s12.1-6,13.4-14.3c0.1,0,0.1-0.1,0.2-0.2
			c0.6-0.4,1.5-1,1.9-3c0.7-2.9-0.1-4.2-0.9-4.8c-0.2-0.1-0.4-0.2-0.6-0.3C63.3,42.1,63.3,40.1,62.8,38.1z M37.5,39.4l0-0.1
			c0.2-0.5,0.7-2.2,2.1-3.7c0.7-0.8,1.9-2.2,4-2.7c0.4-0.1,0.7-0.2,1.1-0.2c0.4,0,0.7-0.2,0.9-0.6c0.3-0.5,0.5-1.1,0.4-1.7
			c0.4,0.2,0.7,0.5,1,0.9c0.3,0.3,0.7,0.5,1.1,0.4c0.4-0.1,0.8-0.3,0.9-0.7c0.2-0.4,0.3-0.9,0.4-1.4c0.1-0.4,0.1-0.8,0.2-1.1
			c2.1,0.6,4.7,1.8,7.1,4.2c1.7,1.7,3.1,3.8,3.9,6c0.2,0.8,0.3,1.6,0.3,2.4c0,0,0-0.1,0-0.1c-0.7-1.6-1.7-3.1-2.9-4.4
			c-0.3-0.3-0.6-0.4-1-0.3c-0.4,0.1-0.7,0.3-0.8,0.7c-0.5,1-1.1,1.8-1.8,2.5c-1.4,1.2-3.3,1.8-5.5,1.8c-2.6,0-5.4-0.8-8.2-2.3
			c-0.5-0.3-1.2-0.1-1.5,0.4c-0.7,1-1.3,2-1.7,3.1c-0.1,0.1-0.1,0.3-0.2,0.4C37,41.7,37.1,40.5,37.5,39.4z M35.4,52.1
			C35.4,52.1,35.4,52.1,35.4,52.1L35.4,52.1L35.4,52.1L35.4,52.1z M62.2,48.5c-0.3,1.1-0.6,1.3-1,1.6c-0.4,0.3-1,0.7-1.1,1.6
			c0,0,0,0,0,0c0,0,0,0,0,0c-1.1,7.2-5.8,12.5-11.2,12.5c-5.4,0-10.1-5.2-11.2-12.5c0,0,0,0,0,0c0,0,0,0,0,0c0-0.1,0-0.1,0-0.2
			c0,0,0,0,0,0c-0.2-0.8-0.7-1.1-1.1-1.4c-0.4-0.3-0.8-0.5-1-1.6c-0.4-1.6-0.1-2.2,0-2.3c0,0,0.1,0,0.1,0c0.2,0.5,0.5,1,0.8,1.4
			c0.2,0.3,0.6,0.5,1,0.5c0.1,0,0.2,0,0.3,0c0.5-0.1,0.8-0.5,0.9-1c0.1-1.3,0.4-2.6,0.9-3.8c0.3-0.6,0.6-1.2,0.9-1.8
			c2.8,1.4,5.7,2.1,8.4,2.1c2.8,0,5.2-0.8,7-2.3c0.6-0.5,1.1-1.1,1.6-1.7c0.6,0.7,1,1.6,1.4,2.4c0.7,1.6,0.9,3.3,0.8,5
			c0,0.5,0.3,1,0.8,1.2c0.5,0.1,1.1-0.1,1.3-0.6c0.2-0.4,0.4-0.9,0.6-1.3C62.4,46.5,62.5,47.1,62.2,48.5z"/>
		<path class="st1" d="M76.2,48.6C76.2,48.6,76.2,48.6,76.2,48.6c0.2,0,0.4,0.1,0.4,0.2c0.5,0.4,1.2,0.4,1.6-0.1
			c0.4-0.5,0.4-1.2-0.1-1.6c-0.3-0.2-1-0.8-2-0.7c-1,0-1.6,0.5-1.9,0.7c-0.5,0.4-0.5,1.2-0.1,1.6c0.2,0.3,0.6,0.4,0.9,0.4
			c0.3,0,0.5-0.1,0.8-0.3C75.8,48.7,75.9,48.6,76.2,48.6z"/>
		<path class="st1" d="M83.8,46.2c-1.1,0-1.8,0.6-2,0.8c-0.5,0.4-0.5,1.2,0,1.6c0.4,0.5,1.2,0.5,1.6,0c0,0,0.2-0.2,0.4-0.2
			c0,0,0,0,0,0c0.2,0,0.4,0.1,0.4,0.2c0.2,0.2,0.5,0.3,0.8,0.3c0.3,0,0.6-0.1,0.8-0.4c0.4-0.5,0.4-1.2,0-1.6
			C85.5,46.8,84.8,46.2,83.8,46.2z"/>
		<path class="st1" d="M81.6,54.2c-1.3,1-2.7,1-4,0c-0.5-0.4-1.2-0.3-1.6,0.2c-0.4,0.5-0.3,1.2,0.2,1.6c1.1,0.8,2.2,1.2,3.4,1.2
			c1.2,0,2.3-0.4,3.4-1.2c0.5-0.4,0.6-1.1,0.2-1.6C82.8,53.9,82.1,53.8,81.6,54.2z"/>
		<path class="st1" d="M85.9,60.4h-0.1c-0.3,0-0.6,0.2-0.8,0.4c-0.2,0.3-0.3,0.6-0.3,0.9c0.3,1.8-0.7,3.4-1.5,4.4
			c-1.4,1.7-3.2,2.6-3.7,2.7c-0.9,0-5.2-2.8-5.2-6.4c0-0.2,0-0.4,0-0.6c0.1-0.4-0.1-0.7-0.3-1c-0.3-0.3-0.6-0.4-1-0.3
			c-2.7,0.5-5.1,1.7-7.1,3.4c-0.6,0.5-0.5,1.4,0.2,1.8l0,0c0.4,0.3,0.9,0.2,1.3-0.1c1.3-1.1,2.8-2,4.6-2.5c0.5,4.5,5.5,8.1,7.5,8.1
			c1.4,0,3.7-1.5,5.3-3.3c1-1.1,2.1-2.8,2.2-4.9c2.8,0.8,8.3,4.3,9.1,11c-1.4,1.1-2.9,2-4.5,2.8v-4.4c0-0.6-0.5-1.2-1.2-1.2
			s-1.2,0.5-1.2,1.2v5.4c-3.1,1.2-6.5,1.9-9.8,1.9c-0.8,0-1.6,0-2.3-0.1c-0.7-0.1-1.3,0.6-1.2,1.3c0,0,0,0,0,0c0.1,0.5,0.5,0.9,1,1
			c0.8,0.1,1.7,0.1,2.5,0.1c3.9,0,7.7-0.8,11.2-2.3c0.1,0,0.3-0.1,0.4-0.2c2.5-1.1,4.8-2.5,6.9-4.2c0.3-0.2,0.4-0.6,0.4-1
			C97.8,65.2,89.3,60.4,85.9,60.4z"/>
		<path class="st1" d="M100,42.1c0-1-0.4-1.9-1-2.7c0.4-0.6,0.6-1.3,0.6-2.1c0-1.6-1-3.1-2.5-3.7c0.1-0.3,0.1-0.7,0.1-1
			c0-2.1-1.6-3.8-3.7-4c0-2.1-1.8-3.9-4-4c-0.3,0-0.7,0.1-1,0.2c-0.6-1.3-2-2.3-3.6-2.3c-0.6,0-1.2,0.2-1.7,0.4
			c-0.7-1.2-1.9-1.9-3.4-2c0,0-0.1,0-0.1,0c0,0-0.1,0-0.2,0c-1.4,0-2.7,0.8-3.4,2c-0.5-0.3-1.1-0.4-1.8-0.5c-1.6,0-2.9,1-3.5,2.3
			c-0.3-0.1-0.7-0.2-1.1-0.2c-2.1,0.1-3.9,1.8-3.9,4c-2.1,0.2-3.7,1.9-3.7,4c0,0.1,0,0.3,0,0.4c0.4,0.7,0.8,1.3,1.2,2
			c0.3,0.5,0.9,0.7,1.4,0.4c0.1-0.1,0.2-0.2,0.3-0.4c0.2-0.4,0.2-1-0.2-1.3c-0.2-0.2-0.4-0.6-0.4-1.1c0-0.9,0.7-1.7,1.6-1.7
			c0.3,0,0.5,0.1,0.8,0.2c0.6,0.3,1.3,0.1,1.6-0.5c0.2-0.4,0.2-0.8-0.1-1.2c-0.2-0.3-0.2-0.6-0.2-0.9c0-0.9,0.7-1.7,1.6-1.7
			c0.5,0,0.9,0.2,1.1,0.4c0.3,0.3,0.8,0.4,1.3,0.2c0.4-0.2,0.7-0.6,0.7-1.1c0,0,0-0.1,0-0.1c0-0.9,0.8-1.6,1.6-1.6
			c0.6,0,1.1,0.3,1.4,0.8c0.3,0.5,0.8,0.7,1.3,0.5c0.5-0.1,0.9-0.6,0.8-1.1c0,0,0-0.1,0-0.1c0-0.9,0.8-1.6,1.6-1.6l0.1,0h0.2l0,0
			c0.9,0,1.6,0.8,1.6,1.6c0,0,0,0.1,0,0.1c0,0.6,0.4,1.2,1.1,1.2c0.4,0,0.9-0.2,1.1-0.6c0.3-0.5,0.8-0.8,1.3-0.8
			c0.9,0,1.6,0.8,1.6,1.6c0,0,0,0.1,0,0.1c0,0.5,0.3,0.9,0.7,1.1c0.4,0.2,0.9,0.1,1.3-0.2c0.2-0.2,0.6-0.4,1-0.4
			c0.9,0,1.6,0.8,1.6,1.7c0,0.3-0.1,0.6-0.3,0.9c-0.3,0.5-0.2,1.1,0.2,1.5c0.4,0.3,0.9,0.3,1.4,0.1c0.2-0.1,0.5-0.2,0.7-0.2
			c0.9,0,1.6,0.8,1.6,1.7c0,0.5-0.2,0.9-0.4,1.1c-0.4,0.4-0.4,1.1,0,1.6c0.3,0.3,0.7,0.4,1.1,0.4l0.1,0c0.9,0.1,1.6,0.8,1.6,1.7
			c0,0.5-0.2,1-0.6,1.3c-0.3,0.2-0.5,0.6-0.4,1c0,0.4,0.3,0.7,0.6,0.9c0.6,0.3,0.9,0.9,0.9,1.5c0,0.9-0.7,1.6-1.5,1.7
			c-0.5,0-0.9,0.4-1,0.9c-0.1,0.5,0.1,1,0.5,1.2c0.7,0.5,1,1.4,0.6,2.2c-0.3,0.5-0.8,0.8-1.4,0.9c-0.4,0-0.7,0.2-0.9,0.6
			c-0.2,0.3-0.2,0.7,0,1.1c0.1,0.2,0.2,0.5,0.2,0.7c0,0.9-0.7,1.6-1.5,1.7c-0.4,0-0.7,0.4-0.9,0.8c-0.2,0.7-0.9,1.1-1.5,1.1
			c-0.3,0-0.6-0.1-0.8-0.2c0.8-1.6,1.4-3.4,1.7-5.3c0,0,0-0.1,0.1-0.1c0,0,0.1-0.1,0.1-0.1c0.5-0.3,1.3-0.9,1.7-2.6
			c0.6-2.6-0.1-3.7-0.9-4.2c-0.5-0.4-1.2-0.5-1.8-0.3c-0.1-0.1-0.2-0.2-0.2-0.3c-0.6-1.2,0.1-2.6,0.2-2.7c0.2-0.4,0.2-0.9-0.1-1.2
			c-0.3-0.4-0.7-0.5-1.2-0.4c-0.3,0.1-0.9,0.2-1.6-0.2c-1.1-0.6-1.2-2-1.2-2c0-0.6-0.5-1.1-1.1-1.1c-0.6,0-1.1,0.4-1.2,1
			c-0.1,0.6-0.6,1.1-1.2,1.3c-0.7,0.1-1.3-0.2-1.6-0.8c-0.2-0.3-0.5-0.6-0.8-0.6c-0.4-0.1-0.7,0-1,0.3c0,0-1,0.9-2.1,0.6
			c-0.8-0.2-1.2-0.7-1.4-0.9c-0.3-0.4-0.8-0.6-1.3-0.4c-0.5,0.2-0.8,0.6-0.8,1.1c0,0,0,1.3-0.9,1.8c-0.5,0.4-1.1,0.3-1.4,0.3
			c-0.4-0.1-0.8,0.1-1.1,0.4c-0.3,0.3-0.3,0.7-0.2,1.1c0.1,0.2,0.3,1.1-0.1,2c-0.2,0.4-0.5,0.7-0.7,0.9c-0.7-0.2-1.4-0.2-1.9,0.2
			c-0.7,0.5-1.5,1.6-0.9,4.2c0.4,1.7,1.2,2.2,1.7,2.6c0,0,0.1,0,0.1,0.1c0.3,2,1,3.9,1.8,5.5c0,0,0,0,0,0c-0.2,0.1-0.4,0.2-0.6,0.2
			c-0.7,0-1.3-0.5-1.5-1.1c-0.2-0.4-0.5-0.7-1-0.8c-0.1,0-0.2,0-0.2-0.1c-0.3-0.1-0.6-0.3-0.6-0.3c-0.5-0.4-1.1-0.5-1.6-0.2
			c-0.3,0.2-0.6,0.7-0.5,1.1c0,0.3,0.2,0.5,0.4,0.7c0.2,0.3,0.5,0.4,0.7,0.6c0.3,0.2,0.6,0.3,0.9,0.4c0.7,1.2,2,2.1,3.5,2.1
			c0.7,0,1.3-0.2,1.8-0.5c0,0,0,0,0,0c2.1,2.9,5.1,4.7,8.4,4.7c3.3,0,6.3-1.8,8.5-4.7c0.6,0.4,1.3,0.6,2,0.6c1.4,0,2.7-0.9,3.4-2.1
			c1.6-0.5,2.8-2.1,2.8-3.8c0-0.1,0-0.3,0-0.4c1.4-0.6,2.4-2,2.4-3.7c0-0.7-0.2-1.3-0.5-1.9C99.3,44.7,100,43.5,100,42.1z
			 M88.8,48.8c-0.9,6-4.8,10.3-9.2,10.3c-2.7,0-5.2-1.6-7-4.3l-0.4-0.7c-0.9-1.5-1.5-3.3-1.8-5.3c0,0,0-0.1,0-0.2
			c-0.2-0.8-0.7-1.2-1-1.4c-0.3-0.2-0.6-0.4-0.8-1.2c-0.2-1-0.2-1.4-0.1-1.6c0.3,0.2,0.6,0.2,0.8,0.1c0.2,0,0.4,0,0.6-0.1
			c0.6-0.3,1.4-1,2-2.1c0.4-0.8,0.5-1.6,0.5-2.2c0.5-0.1,1-0.3,1.5-0.6c0.7-0.5,1.2-1.1,1.5-1.8c0.3,0.2,0.7,0.3,1.1,0.4
			c1.3,0.3,2.4-0.1,3.1-0.5c0.9,0.9,2.1,1.3,3.4,1c0.6-0.1,1.2-0.4,1.7-0.8c0.4,0.5,0.8,1,1.5,1.4c0.5,0.2,0.9,0.4,1.3,0.5
			c-0.2,0.9-0.2,2.1,0.5,3.2c0.3,0.6,0.8,1.1,1.3,1.5c0.2,0.1,0.4,0.2,0.7,0.2c0.1,0,0.2,0,0.3,0c0.2,0,0.4,0,0.6-0.1
			c0.1,0.2,0.1,0.7-0.1,1.6c-0.2,0.8-0.5,1-0.8,1.2c-0.3,0.2-0.7,0.5-0.9,1C88.9,48.4,88.8,48.6,88.8,48.8z"/>
		<path class="st1" d="M30.3,22.8h3.5c0.7,0,1.2,0.4,1.2,0.9v3.7c0,0.6,0.5,1.2,1.2,1.2c0.6,0,1.2-0.5,1.2-1.2v-3.7
			c0-1.8-1.6-3.2-3.5-3.2h-3.5c-0.7,0-1-0.3-1.2-0.6c-0.1-0.3-0.1-0.5,0.1-0.7L47.6,4c0.9-0.7,1.4-0.7,2.3,0l18.4,15.1
			c0.2,0.2,0.2,0.5,0.1,0.7c-0.1,0.3-0.5,0.6-1.2,0.6h-4.4c-2,0-3.5,1.5-3.5,3.2v3.7c0,0.6,0.5,1.2,1.2,1.2c0.6,0,1.2-0.5,1.2-1.2
			v-3.7c0-0.5,0.6-0.9,1.2-0.9h4.4c1.4,0,2.7-0.8,3.3-2c0.5-1.1,0.3-2.4-0.5-3.3c0,0-0.1-0.1-0.1-0.1L51.3,2.1
			c-1.8-1.4-3.5-1.4-5.2,0L27.7,17.4c0,0-0.1,0.1-0.1,0.1c-0.8,0.9-1,2.2-0.5,3.3C27.5,22,28.8,22.8,30.3,22.8z"/>
		<path class="st1" d="M5.6,37.3C4.2,40.6,5,44.7,7.6,48.1c0,1.5-0.3,2.9-0.8,4.2c-0.5,1.3-1.1,2.5-1.9,3.6
			c-0.2,0.3-0.3,0.6-0.2,0.9c0.1,0.3,0.3,0.6,0.6,0.8c2.1,1.1,4.4,1.7,6.7,1.7c0.3,0,0.6,0,1,0c0.6,0,1.1-0.1,1.7-0.2
			c1.4,0.7,2.9,1.2,4.5,1.2c1.6,0,3.1-0.4,4.5-1.2c0.5,0.1,1.1,0.2,1.7,0.2c0.3,0,0.7,0,1,0c2.8,0,5.2-0.9,6.7-1.7
			c0.3-0.2,0.5-0.4,0.6-0.8c0.1-0.3,0-0.7-0.2-0.9c-0.8-1.1-1.5-2.3-1.9-3.6c-0.5-1.4-0.8-2.8-0.8-4.3c0,0,0,0,0,0c0,0,0-0.1,0-0.1
			c0,0,0-0.1,0.1-0.1c1.1-2.4,1.6-5,1.5-7.5c0-0.7-0.1-2-0.6-3.6c-0.3-0.9-1.2-3.5-3.7-5.5c-2.4-1.9-5.1-2.3-6.9-2.3
			c-0.7,0-1.3,0.1-2,0.2c-2.6,0.4-4.5,1.6-5.8,2.7c-1.2,0-2.3,0.3-3.3,0.8C7.9,33.4,6.5,35,5.6,37.3z M7.6,56.1c0.6-1,1.1-2,1.4-3
			c0-0.1,0-0.2,0.1-0.2c0.7,1.6,1.7,3,2.8,4.1C10.5,57,9,56.7,7.6,56.1z M19.1,57.9c-4.4,0-8.2-4.2-9.1-10c0.5-2.1,1.3-4,2.5-5.7
			c0.6-0.9,1.3-1.7,2-2.5c1.5,1.9,3.2,3.5,5.2,4.9c0.5,0.3,1,0.6,1.5,0.9c0,0-0.1,0-0.1,0.1c-0.5,0.4-0.5,1.2-0.1,1.6
			c0.4,0.5,1.2,0.5,1.6,0.1c0,0,0.2-0.2,0.4-0.2c0.3,0,0.4,0.1,0.4,0.2c0.2,0.2,0.5,0.3,0.8,0.3c0.3,0,0.5-0.1,0.8-0.3
			c1,0.4,2.1,0.7,3.2,0.9C27.1,53.9,23.4,57.9,19.1,57.9z M30.7,56.1C29.5,56.6,28,57,26.3,57c1.1-1.1,2.1-2.5,2.8-4.1
			c0,0.1,0,0.1,0.1,0.2C29.6,54.1,30.1,55.2,30.7,56.1z M10.9,34.6c0.8-0.4,1.7-0.6,2.6-0.6l0.1,0c0.3,0,0.6-0.1,0.8-0.3
			c1-0.9,2.6-2,4.9-2.4c0.5-0.1,1-0.1,1.6-0.1c1.5,0,3.6,0.3,5.5,1.8c2,1.6,2.7,3.7,2.9,4.4c0.4,1.3,0.5,2.4,0.5,3
			c0.1,1.3-0.1,2.6-0.4,4L27,41.9c-0.5-0.5-1.2-0.5-1.6,0c-0.5,0.5-0.5,1.2,0,1.6l2.1,2.1C25.2,45,23,44,21,42.7
			c-2.1-1.4-3.9-3.3-5.4-5.4c-0.1-0.1-0.1-0.2-0.2-0.2c-0.1-0.2-0.1-0.3-0.2-0.5c-0.1-0.4-0.2-0.8-0.3-1.1c-0.1-0.6-0.7-1.1-1.3-1
			c-0.6,0.1-1.1,0.7-1,1.3c0.1,0.5,0.2,1.1,0.4,1.6c0,0.1,0.1,0.3,0.2,0.4c-1,0.9-1.9,2-2.6,3.1c-0.9,1.3-1.6,2.7-2.1,4.2
			c-1.2-2.3-1.5-4.8-0.7-6.9C8.4,36.5,9.5,35.3,10.9,34.6z"/>
		<path class="st1" d="M21.1,53c-1.3,1-2.7,1-4,0c-0.5-0.4-1.2-0.3-1.6,0.2c-0.4,0.5-0.3,1.2,0.2,1.6c1.1,0.8,2.2,1.2,3.4,1.2
			c1.2,0,2.3-0.4,3.4-1.2c0.5-0.4,0.6-1.1,0.2-1.6C22.4,52.7,21.6,52.6,21.1,53z"/>
		<path class="st1" d="M20.3,79.7c-0.4,0-0.9,0-1.3,0c-3.4,0-6.7-0.6-9.8-1.9v-5.4c0-0.6-0.5-1.2-1.2-1.2c-0.6,0-1.2,0.5-1.2,1.2
			v4.4C5.3,76,3.8,75,2.4,74c0.5-4.3,3.5-9.2,9.1-10.9c0.5,4.5,5.5,8.1,7.5,8.1c1.4,0,3.7-1.5,5.3-3.3c1-1.1,2.1-2.8,2.2-4.9
			c1.1,0.3,2.7,1.1,4.3,2.3c0.4,0.3,0.9,0.3,1.3,0.1c0,0,0,0,0.1,0c0.7-0.4,0.8-1.3,0.2-1.8c-2.5-2.1-5.2-3.1-6.8-3.1h-0.1
			c-0.3,0-0.6,0.2-0.8,0.4c-0.2,0.3-0.3,0.6-0.3,0.9c0.3,1.8-0.7,3.4-1.5,4.4c-1.4,1.7-3.2,2.6-3.7,2.7c-0.9,0-5.2-2.8-5.2-6.4
			c0-0.2,0-0.4,0-0.6c0.1-0.4-0.1-0.7-0.3-1c-0.3-0.3-0.6-0.4-1-0.3C5.6,61.7,0.5,67.4,0,74.4c0,0.4,0.1,0.7,0.4,1
			c2.1,1.8,4.5,3.2,7,4.3c0.1,0,0.2,0.1,0.2,0.1C11.2,81.2,15.1,82,19,82c0.5,0,1,0,1.4,0c0.5,0,1-0.4,1.1-1c0,0,0,0,0,0
			C21.6,80.3,21.1,79.6,20.3,79.7z"/>
		<path class="st1" d="M16,47.3c0.2,0.2,0.5,0.3,0.8,0.3c0.3,0,0.6-0.1,0.9-0.4c0.4-0.5,0.4-1.2-0.1-1.6c-0.3-0.2-1-0.7-2-0.7
			c-1,0-1.6,0.5-1.9,0.7c-0.5,0.4-0.5,1.2-0.1,1.6c0.4,0.5,1.2,0.5,1.6,0.1c0,0,0.2-0.2,0.4-0.2C15.8,47.1,15.9,47.3,16,47.3z"/>
		<path class="st1" d="M1.7,44.6c0.1,0,0.2,0,0.2,0c0.6-0.1,1-0.7,0.9-1.4c-0.5-2.4-0.3-4.7,0.6-6.8c1.4-3.5,3.7-5.2,5.4-6
			c0.6-0.3,0.8-1,0.5-1.5c-0.3-0.6-1-0.8-1.5-0.5c-2.1,1-4.9,3.1-6.6,7.3c-1,2.5-1.2,5.3-0.7,8.1C0.7,44.2,1.2,44.6,1.7,44.6z"/>
		<path class="st1" d="M70.2,90.3c-6.6,4.1-14.1,6.2-21.9,6.2c-8.3,0-16.3-2.4-23.2-7.1c-0.5-0.4-1.3-0.2-1.6,0.3
			c-0.4,0.5-0.2,1.3,0.3,1.6c7.3,4.9,15.7,7.4,24.5,7.4c8.2,0,16.2-2.3,23.1-6.6c0.5-0.3,0.7-1.1,0.4-1.6
			C71.4,90.2,70.7,90,70.2,90.3z"/>
		<path class="st1" d="M23.5,83.7c3,2.6,6.3,4.6,9.9,6.2c0.1,0,0.2,0.1,0.2,0.1c4.7,2,9.8,3,15,3h0.1h0.2c0,0,0,0,0.1,0
			c5.5,0,10.8-1.3,15.7-3.5c0.1,0,0.1-0.1,0.2-0.1c3.3-1.5,6.4-3.5,9.2-6c0.3-0.2,0.4-0.6,0.4-1c-0.7-9.1-7.5-16.6-16.4-18.1
			c0,0,0,0-0.1,0c-0.1,0-0.2,0-0.3,0c0,0-0.1,0-0.1,0c0,0-0.1,0-0.1,0c0,0,0,0-0.1,0c-0.3,0-0.5,0.1-0.7,0.3c-2.2,2-4.8,3-7.7,3
			c-3,0-6-1.1-8.1-3c-0.3-0.2-0.6-0.3-0.9-0.3c-0.1,0-0.1,0-0.2,0l-0.1,0c-9.1,1.6-15.8,9.1-16.4,18.3c0,0,0,0,0,0.1
			c0,0.1,0,0.1,0,0.2c0,0,0,0.1,0,0.1c0,0.1,0,0.1,0,0.2c0,0,0,0.1,0,0.1c0,0.1,0.1,0.1,0.1,0.2c0,0,0,0,0,0.1
			C23.4,83.6,23.4,83.7,23.5,83.7z M56.3,67.8L56,71.3l-3.5-1.8C53.8,69.2,55.1,68.6,56.3,67.8z M50,70.9l6.4,3.3
			c0.2,0.1,0.3,0.1,0.5,0.1c0.2,0,0.4,0,0.6-0.1c0.3-0.2,0.6-0.5,0.6-0.9l0.6-6.2c7.1,1.8,12.5,7.8,13.3,15.2
			c-2,1.7-4.3,3.2-6.6,4.4v-6.3c0-0.6-0.5-1.2-1.2-1.2c-0.6,0-1.2,0.5-1.2,1.2v7.4c-4.1,1.8-8.5,2.8-13,3V70.9z M45.1,69.5l-3.5,1.8
			l-0.3-3.4C42.4,68.6,43.7,69.1,45.1,69.5z M38.8,67l0.6,6.3c0,0.4,0.3,0.7,0.6,0.9c0.2,0.1,0.4,0.1,0.6,0.1c0.2,0,0.4,0,0.5-0.1
			l6.7-3.4v20c-0.1,0-0.3,0-0.4,0c-0.2,0-0.5,0-0.7,0c-0.3,0-0.6,0-0.9-0.1c-0.2,0-0.5,0-0.7-0.1c-0.3,0-0.6-0.1-0.9-0.1
			c-0.2,0-0.5-0.1-0.7-0.1c-0.3,0-0.6-0.1-0.9-0.1c-0.2,0-0.5-0.1-0.7-0.1c-0.3-0.1-0.6-0.1-0.9-0.2c-0.2,0-0.4-0.1-0.7-0.1
			c-0.3-0.1-0.6-0.1-0.9-0.2c-0.2-0.1-0.4-0.1-0.6-0.2c-0.3-0.1-0.6-0.2-0.9-0.3c-0.2-0.1-0.4-0.1-0.6-0.2c-0.3-0.1-0.6-0.2-0.9-0.3
			c-0.2-0.1-0.4-0.1-0.5-0.2c-0.3-0.1-0.5-0.2-0.8-0.3v-7.8c0-0.6-0.5-1.2-1.2-1.2s-1.2,0.5-1.2,1.2v6.8c-0.4-0.2-0.8-0.4-1.1-0.6
			c-0.2-0.1-0.3-0.2-0.5-0.3c-0.3-0.2-0.6-0.3-0.9-0.5c-0.2-0.1-0.4-0.2-0.5-0.3c-0.3-0.2-0.5-0.3-0.8-0.5c-0.2-0.1-0.4-0.2-0.5-0.4
			c-0.2-0.2-0.5-0.3-0.7-0.5c-0.2-0.1-0.4-0.3-0.6-0.4c-0.2-0.2-0.5-0.4-0.7-0.5c-0.2-0.1-0.4-0.3-0.5-0.4c-0.1-0.1-0.3-0.2-0.4-0.4
			C26.2,74.9,31.6,68.7,38.8,67z"/>
	</g>
</g>
</svg>
