<?xml version="1.0" encoding="utf-8"?>
<!-- Generator: Adobe Illustrator 21.0.0, SVG Export Plug-In . SVG Version: 6.00 Build 0)  -->
<svg version="1.1" id="Layer_1" xmlns="http://www.w3.org/2000/svg" xmlns:xlink="http://www.w3.org/1999/xlink" x="0px" y="0px"
	 viewBox="0 0 100 100" style="enable-background:new 0 0 100 100;" xml:space="preserve">
<style type="text/css">
	.st0{fill-rule:evenodd;clip-rule:evenodd;fill:#29B06D;}
	.st1{fill:#6F6F70;}
</style>
<g id="location">
	<g>
		<path class="st0" d="M77.3,39.8c0-16.4-12.2-27.3-27.3-27.3S22.7,23.4,22.7,39.8C22.7,56.9,50,87.5,50,87.5S77.3,56.9,77.3,39.8z
			 M39.8,40.2C39.8,34.5,44.4,30,50,30s10.2,4.6,10.2,10.2S55.6,50.4,50,50.4S39.8,45.8,39.8,40.2z"/>
	</g>
	<path class="st1" d="M50,89.7c0.6,0,1.2-0.3,1.6-0.7c1.1-1.3,27.9-31.5,27.9-49.2c0-17.1-12.4-29.4-29.4-29.4S20.6,22.7,20.6,39.8
		c0,17.7,26.7,47.9,27.9,49.2C48.8,89.4,49.4,89.7,50,89.7z M50,14.6c14.6,0,25.2,10.6,25.2,25.2c0,13.8-19.5,37.8-25.2,44.5
		c-5.7-6.8-25.2-30.7-25.2-44.5C24.8,25.2,35.4,14.6,50,14.6z"/>
	<path class="st1" d="M62.3,40.2c0-6.8-5.5-12.3-12.3-12.3s-12.3,5.5-12.3,12.3c0,6.8,5.5,12.3,12.3,12.3S62.3,46.9,62.3,40.2z
		 M41.9,40.2c0-4.5,3.6-8.1,8.1-8.1s8.1,3.6,8.1,8.1c0,4.5-3.6,8.1-8.1,8.1S41.9,44.6,41.9,40.2z"/>
	<path class="st1" d="M81.4,58c0.3,0.1,0.6,0.2,0.9,0.2c0.8,0,1.6-0.5,1.9-1.2c2.9-6.5,4.3-12.2,4.3-17.2c0-6.2-1.3-12-3.9-17.3
		c-0.5-1-1.8-1.5-2.8-1c-1,0.5-1.5,1.8-1,2.8c2.3,4.7,3.4,9.9,3.4,15.4c0,4.3-1.3,9.5-4,15.5C79.9,56.3,80.3,57.6,81.4,58z"/>
	<path class="st1" d="M17.8,58.2c0.3,0,0.6-0.1,0.9-0.2c1.1-0.5,1.5-1.7,1.1-2.8c-2.6-5.9-4-11.1-4-15.5c0-5.5,1.2-10.7,3.4-15.4
		c0.5-1,0.1-2.3-1-2.8c-1-0.5-2.3-0.1-2.8,1c-2.6,5.3-3.9,11.1-3.9,17.3c0,4.9,1.5,10.7,4.3,17.2C16.2,57.8,17,58.2,17.8,58.2z"/>
	<path class="st1" d="M7.5,63.4c0.3,0,0.6-0.1,0.9-0.2c1.1-0.5,1.5-1.7,1.1-2.8c-3.4-7.6-5.2-14.6-5.2-20.6c0-7.4,1.5-14.3,4.6-20.6
		c0.5-1,0.1-2.3-1-2.8c-1-0.5-2.3-0.1-2.8,1c-3.3,6.9-5,14.4-5,22.5C0,46.5,1.9,54,5.6,62.2C5.9,62.9,6.7,63.4,7.5,63.4z"/>
	<path class="st1" d="M91.7,63.2c0.3,0.1,0.6,0.2,0.9,0.2c0.8,0,1.6-0.5,1.9-1.2c3.7-8.2,5.5-15.7,5.5-22.4c0-8-1.7-15.6-5-22.5
		c-0.5-1-1.8-1.5-2.8-1c-1,0.5-1.5,1.8-1,2.8c3,6.3,4.6,13.3,4.6,20.6c0,6-1.7,13-5.2,20.6C90.1,61.5,90.6,62.7,91.7,63.2z"/>
</g>
</svg>
