<?xml version="1.0" encoding="utf-8"?>
<!-- Generator: Adobe Illustrator 21.0.0, SVG Export Plug-In . SVG Version: 6.00 Build 0)  -->
<svg version="1.1" id="Layer_1" xmlns="http://www.w3.org/2000/svg" xmlns:xlink="http://www.w3.org/1999/xlink" x="0px" y="0px"
	 viewBox="0 0 100 100" style="enable-background:new 0 0 100 100;" xml:space="preserve">
<style type="text/css">
	.st0{fill:#29B06D;}
	.st1{fill:#6F6F70;}
</style>
<g id="support">
	<g>
		<path class="st0" d="M73.2,34v-2.1c0-2.8-2.3-5-5-5h-2.3V39h2.3C70.9,39,73.2,36.8,73.2,34z"/>
		<path class="st0" d="M39.2,39h2.3V26.8h-2.3c-2.8,0-5,2.3-5,5V34C34.1,36.8,36.4,39,39.2,39z"/>
		<path class="st0" d="M82.5,91.5c0.2-0.4,0.4-0.8,0.4-1.2V63.6c0-1.4-1.2-2.6-2.6-2.6h-52c-1.4,0-2.6,1.2-2.6,2.6v26.6
			c0,0.5,0.1,0.9,0.3,1.2c-3.8,0-6.5,0-6.5,0v0.6c0,2.4,1.9,4.3,4.3,4.3h61c2.4,0,4.3-1.9,4.3-4.3v-0.6C89,91.5,86.3,91.5,82.5,91.5
			z M54.2,74.4c1.7,0,3,1.4,3,3c0,1.7-1.4,3-3,3c-1.7,0-3-1.4-3-3C51.2,75.8,52.6,74.4,54.2,74.4z"/>
	</g>
	<g>
		<path class="st1" d="M48.4,34.2c-0.7,0-1.2,0.5-1.2,1.2c0,0.7,0.5,1.2,1.2,1.2h2.8c0.7,0,1.2-0.5,1.2-1.2c0-0.7-0.5-1.2-1.2-1.2
			H48.4z"/>
		<path class="st1" d="M60.2,36.7c0.7,0,1.2-0.5,1.2-1.2c0-0.7-0.5-1.2-1.2-1.2h-2.8c-0.7,0-1.2,0.5-1.2,1.2c0,0.7,0.5,1.2,1.2,1.2
			H60.2z"/>
		<path class="st1" d="M98.8,95.1h-9.5c0.6-0.9,0.9-1.9,0.9-3v-0.6c0-0.7-0.5-1.2-1.2-1.2h-5V63.6c0-2.1-1.7-3.8-3.8-3.8h-3.9
			c-2.9-4.7-7.7-8.1-13.5-9.1c0,0-0.1,0-0.1,0v0c-0.1,0-0.2,0-0.3,0c-0.1,0-0.2,0-0.3,0c-0.2,0-0.5,0.1-0.7,0.3
			c-2.2,1.9-4.9,3-7.8,3c-2.9,0-5.7-1.1-7.8-3c0,0,0,0,0,0c0,0-0.1-0.1-0.1-0.1c0,0-0.1,0-0.1,0c0,0-0.1,0-0.1-0.1c0,0-0.1,0-0.1,0
			c0,0-0.1,0-0.1,0c0,0-0.1,0-0.1,0c0,0-0.1,0-0.1,0c0,0-0.1,0-0.1,0c0,0-0.1,0-0.1,0l-0.3,0c-5.8,1-10.6,4.4-13.5,9.1h-2.9
			c-2.1,0-3.8,1.7-3.8,3.8v26.7h-4.9c-0.7,0-1.2,0.5-1.2,1.2v0.6c0,1.1,0.3,2.2,0.9,3h-18c-0.7,0-1.2,0.5-1.2,1.2s0.5,1.2,1.2,1.2
			h22.6h61h14c0.7,0,1.2-0.5,1.2-1.2S99.5,95.1,98.8,95.1z M44.7,53.1c2.5,2.1,5.7,3.2,9,3.2c3.3,0,6.4-1.2,9-3.2
			c4.4,0.8,8.2,3.3,10.7,6.7H34.1C36.6,56.4,40.3,54,44.7,53.1z M26.9,63.6c0-0.8,0.6-1.4,1.4-1.4h1.6h2.7h5.3h2.4h27.6h2.4h4.6h2.7
			h2.6c0.8,0,1.4,0.6,1.4,1.4v26.7c0,0.7-0.6,1.2-1.2,1.2H28.1c-0.7,0-1.2-0.5-1.3-1.2V63.6z M23.8,95.1c-1.5,0-2.7-1-3-2.4h4.6
			c0.7,0.8,1.6,1.2,2.7,1.2h52.3c1.1,0,2.1-0.5,2.7-1.2h4.6c-0.3,1.4-1.5,2.4-3,2.4H23.8z"/>
		<path class="st1" d="M32.9,34c0,2.5,1.5,4.7,3.7,5.7c0.5,4.4,4.2,7.9,8.8,7.9h3.2h0.2h1.4c1.3,0,2.3-1,2.3-2.3V45
			c0-1.3-1-2.3-2.3-2.3h-1.5c-1.3,0-2.3,1-2.3,2.3v0.2h-0.9c-3,0-5.5-2.1-6.2-4.9h2c0.2,0.8,0.5,1.5,0.8,2.2
			c0.2,0.5,0.6,0.7,1.1,0.7c0.2,0,0.3,0,0.5-0.1c0.6-0.3,0.9-1,0.6-1.6c-0.7-1.5-1.2-3.2-1.4-5c0,0,0,0,0,0c0,0,0,0,0,0
			c0,0,0,0,0-0.1c0-0.1,0-0.1-0.1-0.2c0-0.1,0-0.2-0.1-0.2v-5.5c0,0,0.1-0.1,0.1-0.1c0.7-0.8,1.5-1.4,2.4-1.7
			c0.4-0.1,0.8-0.2,1.3-0.2c1.4,0,2.7,0.6,4.1,1.3c0.5,0.2,1,0.5,1.4,0.7c1.7,0.7,3.5,1,5.5,1c0.3,0,0.7,0,1,0c0.1,0,0.2,0,0.3,0
			c0.1,0,0.3,0,0.4-0.1c1.6-0.2,3.4-0.5,5.2-1.1c0.1,0,0.2,0.1,0.2,0.1v7.5c-1.4,6.5-5.8,11-10.8,11c-0.8,0-1.5-0.1-2.3-0.3
			c-0.6-0.2-1.3,0.2-1.5,0.8c-0.2,0.6,0.2,1.3,0.8,1.5c1,0.3,2,0.4,3,0.4c5.6,0,10.6-4.5,12.7-11h1.6c3.5,0,6.3-2.8,6.3-6.3v-2.1
			c0-2.5-1.5-4.7-3.7-5.7v-4.3c0-8-6.9-14.6-15.4-14.6H52c-8.5,0-15.4,6.5-15.4,14.6v4.3c-2.2,1-3.7,3.2-3.7,5.7V34z M64.5,27.6
			C64.5,27.6,64.5,27.6,64.5,27.6c-1.9,0.7-3.6,1.1-5.3,1.3l-4.2-4.2c-0.5-0.5-1.2-0.5-1.7,0c-0.5,0.5-0.5,1.2,0,1.7l2.5,2.5
			c-1-0.1-1.9-0.4-2.7-0.7c-0.4-0.2-0.9-0.4-1.3-0.6c-1.5-0.7-3.2-1.5-5.1-1.5c-0.7,0-1.4,0.1-2,0.3c-0.6,0.2-1.1,0.5-1.7,0.8
			c0-0.9,0.1-1.9,0.3-2.9c0.2-0.9,1-3,2.9-4.8c1.8-1.6,4.3-2.4,7.5-2.4c5.7,0,9,2.4,10.6,7.6C64.4,25.6,64.5,26.6,64.5,27.6z
			 M72,31.9V34c0,2.1-1.7,3.8-3.8,3.8h-1h-0.1v-0.4V36v-2.8v-2.1v-2.5V28h1c0.1,0,0.1,0,0.2,0c0.9,0,1.7,0.4,2.3,0.9
			C71.4,29.7,72,30.7,72,31.9z M39,21.9C39,15.2,44.8,9.8,52,9.8h3.4c7.1,0,12.9,5.4,12.9,12.1v3.7c-0.1,0-0.1,0-0.2,0h-1.3
			c-0.1-0.5-0.2-1.1-0.3-1.6c-1.9-6.3-6.1-9.4-12.9-9.4c-3.8,0-6.9,1-9.2,3c-2.4,2.2-3.3,4.9-3.6,6c-0.2,0.7-0.3,1.4-0.4,2h-1.2
			c-0.1,0-0.1,0-0.2,0V21.9z M35.4,31.9c0-1.1,0.5-2.2,1.3-2.9c0.6-0.6,1.5-0.9,2.3-0.9c0.1,0,0.1,0,0.2,0h1v0.7v8.1v1h-1
			c-0.1,0-0.1,0-0.2,0c-0.9,0-1.8-0.4-2.4-1c-0.8-0.7-1.2-1.7-1.2-2.8V31.9z"/>
		<path class="st1" d="M28.2,54.9c0.7,0,1.2-0.5,1.2-1.2c0-0.7-0.5-1.2-1.2-1.2c-6.1,0-11.2,5-11.2,11.2v9.6c0,0.7,0.5,1.2,1.2,1.2
			s1.2-0.5,1.2-1.2v-9.6C19.5,58.8,23.4,54.9,28.2,54.9z"/>
		<path class="st1" d="M90.1,87.8c0.7,0,1.2-0.5,1.2-1.2V72c0-0.7-0.5-1.2-1.2-1.2c-0.7,0-1.2,0.5-1.2,1.2v14.6
			C88.9,87.3,89.5,87.8,90.1,87.8z"/>
		<circle class="st1" cx="90.4" cy="68.3" r="1.4"/>
		<circle class="st1" cx="76.8" cy="25.6" r="1.4"/>
		<circle class="st1" cx="18.3" cy="76.8" r="1.4"/>
		<path class="st1" d="M75.6,21.9c0,0.7,0.5,1.2,1.2,1.2s1.2-0.5,1.2-1.2c0-5.8-2.4-11.3-6.6-15.4c-0.5-0.5-1.3-0.5-1.7,0
			c-0.5,0.5-0.5,1.3,0,1.7C73.5,11.9,75.6,16.7,75.6,21.9z"/>
		<path class="st1" d="M17.2,28.4c1.5,0,3-0.2,4.4-0.5c1,1,2.1,1.8,3.3,2.4c1.3,0.7,2.8,1.2,4.3,1.4c0.1,0,0.1,0,0.2,0
			c0.4,0,0.8-0.2,1-0.6c0.3-0.4,0.3-0.9,0-1.3c-0.6-1-1-2.1-1.2-3.3c-0.1-0.7-0.1-1.3-0.1-2c3.2-2.4,4.9-5.7,4.9-9.1
			c0-7.1-7.6-13-16.9-13S0.3,8.3,0.3,15.4S7.9,28.4,17.2,28.4z M17.2,4.9c8,0,14.5,4.7,14.5,10.5c0,2.8-1.5,5.5-4.4,7.5
			c-0.3,0.2-0.4,0.5-0.5,0.8c-0.2,1.1-0.2,2.1,0,3.2c0.1,0.6,0.2,1.2,0.4,1.8c-0.4-0.2-0.8-0.3-1.2-0.5c-1.2-0.6-2.2-1.4-3.1-2.4
			c-0.2-0.3-0.6-0.4-0.9-0.4c-0.1,0-0.2,0-0.3,0c-1.5,0.4-3,0.5-4.6,0.5c-8,0-14.5-4.7-14.5-10.5S9.2,4.9,17.2,4.9z"/>
		<circle class="st1" cx="23.1" cy="15.9" r="1.6"/>
		<circle class="st1" cx="17.1" cy="15.9" r="1.6"/>
		<circle class="st1" cx="11.2" cy="15.9" r="1.6"/>
	</g>
</g>
</svg>
