<?xml version="1.0" encoding="utf-8"?>
<!-- Generator: Adobe Illustrator 21.0.0, SVG Export Plug-In . SVG Version: 6.00 Build 0)  -->
<svg version="1.1" id="Layer_1" xmlns="http://www.w3.org/2000/svg" xmlns:xlink="http://www.w3.org/1999/xlink" x="0px" y="0px"
	 viewBox="0 0 975.2 238.2" style="enable-background:new 0 0 975.2 238.2;" xml:space="preserve">
<style type="text/css">
	.st0{fill:#FF8300;}
	.st1{fill:#55565A;}
</style>
<g>
	<path class="st0" d="M142.1,73.6c-26.5-24.8-45.1-36.2-62.9-40C59.9,29.5,46.3,42,63.8,77.8c0,0,16.8,35.5,59.1,66.5
		c20.4,14.7,46.9,20.5,41-9.2c-1.9-9-13.9-31.3-44.4-58.4c-9-7.5-24.2-18-30.4-11.1c-6.1,6.9,6.9,25,14.8,32.9
		c0,0,14.3,13.2,27.7,18.6c-0.9-0.8-2-1.7-3.1-2.7c-7.7-6.9-20.2-18.7-24.3-26.4c0-0.1-0.1-0.1-0.1-0.2c-0.1-0.3-0.3-0.5-0.4-0.8
		c-0.1-0.2-0.1-0.3-0.2-0.5c-0.1-0.2-0.2-0.4-0.3-0.7c0-0.1-0.1-0.3-0.1-0.4c-0.1-0.3-0.2-0.6-0.2-0.9c-0.4-1.8-0.1-2.5,1.3-3.5
		c0.3-0.2,2-1.2,4.7-0.6c1.2,0.4,2.5,1,3.9,1.9c0.7,0.5,1,0.7,1.2,0.7c4,2.7,8.9,7.3,14.2,13.7c10.7,12.8,22,29.8,10.3,31.8
		c-9.2,1.7-27-10.8-40.3-25.3C87.1,91.1,66.8,61.9,82,54.8c14.7-6.9,47.7,16.1,71.3,47.5c18.4,24.5,32.9,56.2,13,62.9
		c-14.8,5.3-39.3-4.5-66.6-28.3c-25.9,17.7-74.9-20.5-74.9-20.5s31.2,34,51.6,50.4c11.5,8.8,19.8,14,31.3,21.1
		c23,14.2,48.2,20.8,54.3,21.8c25.5,4.5,42.9-5.8,41.9-27.9C203,164.8,181.2,111.6,142.1,73.6"/>
	<path class="st1" d="M262.4,127.9c-1.4,3.3-2.5,6.2-3.5,9.2l-0.4-1.2c-0.9-2.5-1.9-5.3-3-8.1l-14.6-38l-0.2-0.4h-12.3l25.9,64.6
		l0.2,0.4h7.7l27.8-64.1l0.4-0.9h-11.8L262.4,127.9z"/>
	<polygon class="st1" points="332.4,99.2 335.9,89.3 300.6,89.3 300.6,153.9 335.8,153.9 335.8,144 311.9,144 311.9,125.8 
		332.5,125.8 332.5,115.9 311.9,115.9 311.9,99.2 	"/>
	<path class="st1" d="M376.9,108.7c0,5.8-4.7,10.4-10.7,10.4h-5.3V99.3h5.1C372.9,99.3,376.9,102.7,376.9,108.7 M377.1,124.5
		c7.1-3.2,11.4-9.5,11.4-16.9c0-11.6-8.2-18.3-22.5-18.3h-16.4v64.6h11.3v-25.7h5.1c2,0.7,6.2,7.7,13.2,19.4l0.3,0.5
		c1,1.7,2.1,3.5,3.3,5.5l0.2,0.3h13.2l-2.4-4C385.6,136.4,380,127.2,377.1,124.5"/>
	<polygon class="st1" points="399.1,99.2 417.5,99.2 417.5,153.9 428.9,153.9 428.9,99.2 446.1,99.2 449.3,89.3 399.1,89.3 	"/>
	<rect x="459.4" y="89.3" class="st1" width="11.3" height="64.6"/>
	<path class="st1" d="M529.4,143.2c-2.4,1.2-6,1.9-10,1.9c-13.9,0-22.8-9.3-22.8-23.6c0-14.1,9-22.9,23.6-22.9
		c5.6,0,11.4,1.6,17.3,4.6l0.9,0.5l0.1-11.2l-0.4-0.2c-5.7-2.4-12-3.6-18.6-3.6c-20.6,0-35,13.9-35,33.7c0,19.1,13.3,32.4,32.4,32.4
		c11.7,0,20.4-3.9,23.7-5.6l0.3-0.2v-27.9h-11.3V143.2z"/>
	<path class="st1" d="M585.5,145.1c-12.6,0-20.7-9.1-20.7-23.1c0-14.1,8.1-23.2,20.7-23.2c12.5,0,20.6,9.1,20.6,23.2
		C606.1,136,598,145.1,585.5,145.1 M610,98.8L610,98.8c-5.9-6.5-14.6-10.1-24.5-10.1c-9.1,0-17.5,3.3-23.4,9.4
		c-5.9,6-9.2,14.6-9.2,24c0,9.9,3.6,18.7,10.2,24.8c5.8,5.2,13.6,7.9,22.4,7.9c9.3,0,17.3-3.1,23.3-9c6-5.9,9.3-14.5,9.3-24.1
		C618.1,112.7,615.3,104.8,610,98.8"/>
	<path class="st0" d="M692.8,143.2c-2.4,1.2-6,1.9-10,1.9c-13.9,0-22.8-9.3-22.8-23.6c0-14.1,9-22.9,23.6-22.9
		c5.6,0,11.4,1.6,17.3,4.6l0.9,0.5l0.1-10.7v-0.4l-0.4-0.2c-5.7-2.4-12-3.6-18.6-3.6c-20.6,0-35,13.9-35,33.7
		c0,19.1,13.3,32.4,32.4,32.4c11.7,0,20.4-3.9,23.7-5.6l0.3-0.2v-27.9h-11.4V143.2z"/>
	<path class="st0" d="M742.4,106.3c0.4,1.6,1.1,3.5,1.8,5.6l5.6,16.2h-15.2l5.9-16.2C741.2,110,741.8,108.1,742.4,106.3 M746.5,89.1
		h-7.9l-24.7,63.9l-0.3,0.9h11.4l6-16.1h22.6l6.2,15.8l0.2,0.4H772l-25.4-64.4L746.5,89.1z"/>
	<path class="st0" d="M818.1,116.3L818.1,116.3c-1.4,2.2-2.4,3.9-3.2,5.6c-0.9-1.6-2-3.3-3.4-5.4l-18.4-26.9l-0.2-0.3h-10.6v64.6
		h11.3v-41.2c0-1.4,0-2.5-0.1-3.9c0.6,1.1,1.3,2,1.8,2.9c0.2,0.3,0.4,0.7,0.6,1l15.6,22.9l0.2,0.3h6l14.6-22.9
		c0.2-0.4,0.5-0.8,0.8-1.3c0.5-0.8,1.1-1.8,1.6-2.8c0,1.4,0,2.6,0,4v41h11.3V89.3h-10.7L818.1,116.3z"/>
	<polygon class="st0" points="895.2,99.2 898.4,90.1 898.7,89.3 863.4,89.3 863.4,153.9 898.6,153.9 898.6,144 874.7,144 
		874.7,125.8 895.3,125.8 895.3,115.9 874.7,115.9 874.7,99.2 	"/>
	<path class="st0" d="M934.4,116.5c-6-3.3-11.2-6.2-11.2-11.4c0-4.9,4.8-6.7,9.4-6.7c4.6,0,9.3,1.5,14.1,4.3l0.9,0.6l0.1-10.5v-0.4
		l-0.3-0.2c-3-1.6-8.2-3.5-15.3-3.5c-14.2,0-20.5,8.8-20.5,17.5c0,4.6,1.5,8.4,4.5,11.8c3.1,3.5,7.4,5.9,11.6,8.1
		c6,3.3,11.2,6.2,11.2,11.6c0,3.7-3.3,7.4-10.6,7.4c-5.9,0-10.8-2.5-13.8-4.6l-0.6-0.4l-4.7,8.4L909,149l0.5,0.3
		c3.7,2.4,9.8,5.6,19.1,5.6c13.1,0,22.3-7.5,22.3-18.2C950.8,125.5,942.1,120.7,934.4,116.5"/>
</g>
</svg>
